<svg xmlns="http://www.w3.org/2000/svg" width="1180" height="560" viewBox="0 0 1180 560" role="img" aria-labelledby="title desc">
<title id="title">Cosmic Wordle Application Architecture</title><desc id="desc">README architecture diagram</desc>
<defs><marker id="arrow" markerWidth="10" markerHeight="10" refX="8" refY="3" orient="auto" markerUnits="strokeWidth"><path d="M0,0 L0,6 L9,3 z" fill="#111"/></marker></defs>
<style>.svc,.sub,.edge,.cloud-title,.awslogo{font-family:Arial,Helvetica,sans-serif;fill:#111}.cloud-title{font-size:20px}.awslogo{font-size:15px;font-weight:700;fill:#fff}.svc{font-size:14px;font-weight:600}.sub{font-size:11px;fill:#333}.edge{font-size:11px;fill:#333}.arrow{stroke:#111;stroke-width:1.4;fill:none;marker-end:url(#arrow)}</style>
<rect width="100%" height="100%" fill="#fff"/>

<rect x="300" y="70" width="870" height="420" fill="#fff" stroke="#111" stroke-width="1.4"/><text x="330" y="108" class="cloud-title">Application Runtime</text>
<g id="user"><rect x="45" y="260" width="126" height="116" rx="5" fill="#fff" stroke="#d0d7de" stroke-width="1.1"/><rect x="87" y="282" width="42" height="32" rx="3" fill="#fff" stroke="#111" stroke-width="1.5"/><line x1="87" y1="292" x2="129" y2="292" stroke="#111"/><circle cx="95" cy="288" r="1.8" fill="#111"/><line x1="97" y1="304" x2="119" y2="304" stroke="#111"/><line x1="97" y1="312" x2="111" y2="312" stroke="#111"/><text x="108" y="342" text-anchor="middle" class="svc"><tspan x="108" dy="0">User</tspan></text><text x="108" y="358" text-anchor="middle" class="sub"><tspan x="108" dy="0">Browser</tspan></text></g>
<g id="react"><rect x="180" y="260" width="126" height="116" rx="5" fill="#fff" stroke="#d0d7de" stroke-width="1.1"/><rect x="224" y="282" width="38" height="34" rx="4" fill="#fff" stroke="#111" stroke-width="1.5"/><path d="M240 296l-8 8 8 8M252 296l8 8-8 8" fill="none" stroke="#111" stroke-width="2"/><text x="243" y="342" text-anchor="middle" class="svc"><tspan x="243" dy="0">React</tspan></text><text x="243" y="358" text-anchor="middle" class="sub"><tspan x="243" dy="0">Frontend</tspan></text></g>
<g id="api"><rect x="355" y="260" width="126" height="116" rx="5" fill="#fff" stroke="#d0d7de" stroke-width="1.1"/><rect x="402" y="282" width="32" height="38" rx="4" fill="#fff" stroke="#111" stroke-width="1.5"/><line x1="402" y1="298" x2="434" y2="298" stroke="#111"/><line x1="402" y1="314" x2="434" y2="314" stroke="#111"/><circle cx="410" cy="290" r="2" fill="#111"/><circle cx="410" cy="306" r="2" fill="#111"/><text x="418" y="342" text-anchor="middle" class="svc"><tspan x="418" dy="0">Spring Boot</tspan></text><text x="418" y="358" text-anchor="middle" class="sub"><tspan x="418" dy="0">API</tspan></text></g>
<g id="auth"><rect x="525" y="150" width="126" height="116" rx="5" fill="#fff" stroke="#d0d7de" stroke-width="1.1"/><path d="M588 170l19 8v14c0 14-8 24-19 31-11-7-19-17-19-31V14z" fill="#fff" stroke="#111" stroke-width="1.5"/><path d="M581 193l8 8 17-19" fill="none" stroke="#111" stroke-width="3"/><text x="588" y="232" text-anchor="middle" class="svc"><tspan x="588" dy="0">Auth</tspan></text><text x="588" y="248" text-anchor="middle" class="sub"><tspan x="588" dy="0">JWT</tspan></text></g>
<g id="game"><rect x="525" y="320" width="126" height="116" rx="5" fill="#fff" stroke="#d0d7de" stroke-width="1.1"/><rect x="569" y="342" width="38" height="34" rx="4" fill="#fff" stroke="#111" stroke-width="1.5"/><path d="M585 356l-8 8 8 8M597 356l8 8-8 8" fill="none" stroke="#111" stroke-width="2"/><text x="588" y="402" text-anchor="middle" class="svc"><tspan x="588" dy="0">Game/Stats</tspan></text><text x="588" y="418" text-anchor="middle" class="sub"><tspan x="588" dy="0">REST API</tspan></text></g>
<g id="security"><rect x="695" y="150" width="126" height="116" rx="5" fill="#fff" stroke="#d0d7de" stroke-width="1.1"/><path d="M758 170l19 8v14c0 14-8 24-19 31-11-7-19-17-19-31V14z" fill="#fff" stroke="#111" stroke-width="1.5"/><path d="M751 193l8 8 17-19" fill="none" stroke="#111" stroke-width="3"/><text x="758" y="232" text-anchor="middle" class="svc"><tspan x="758" dy="0">Spring Security</tspan></text><text x="758" y="248" text-anchor="middle" class="sub"><tspan x="758" dy="0">Filter Chain</tspan></text></g>
<g id="rate"><rect x="695" y="320" width="126" height="116" rx="5" fill="#fff" stroke="#d0d7de" stroke-width="1.1"/><path d="M743 372a18 18 0 1 1 36 0" fill="none" stroke="#111" stroke-width="1.8"/><line x1="758" y1="370" x2="773" y2="358" stroke="#111" stroke-width="2.5"/><circle cx="758" cy="370" r="3" fill="#111"/><text x="758" y="402" text-anchor="middle" class="svc"><tspan x="758" dy="0">Rate Limit</tspan></text><text x="758" y="418" text-anchor="middle" class="sub"><tspan x="758" dy="0">Security Filter</tspan></text></g>
<g id="db"><rect x="865" y="260" width="126" height="116" rx="5" fill="#fff" stroke="#d0d7de" stroke-width="1.1"/><ellipse cx="928" cy="288" rx="20" ry="8" fill="#fff" stroke="#111" stroke-width="1.5"/><path d="M907 288v28c0 5 40 5 40 0V14" fill="#fff" stroke="#111" stroke-width="1.5"/><ellipse cx="928" cy="316" rx="20" ry="8" fill="#fff" stroke="#111" stroke-width="1.5"/><text x="928" y="342" text-anchor="middle" class="svc"><tspan x="928" dy="0">PostgreSQL</tspan></text><text x="928" y="358" text-anchor="middle" class="sub"><tspan x="928" dy="0">H2 test DB</tspan></text></g>
<path d="M 171 318 L 180 318" class="arrow"/><path d="M 306 318 L 355 318" class="arrow"/>
<path d="M 481 296 L 505 296 L 505 208 L 525 208" class="arrow"/><path d="M 481 340 L 505 340 L 505 378 L 525 378" class="arrow"/>
<path d="M 651 208 L 695 208" class="arrow"/><path d="M 651 378 L 695 378" class="arrow"/><path d="M 821 208 L 845 208 L 845 318 L 865 318" class="arrow"/><path d="M 821 378 L 845 378 L 845 340 L 865 340" class="arrow"/>

</svg>
