<svg xmlns="http://www.w3.org/2000/svg" width="1060" height="500" viewBox="0 0 1060 500" role="img" aria-labelledby="title desc">
<title id="title">Cosmic Wordle Application Architecture</title>
<desc id="desc">README architecture diagram</desc>
<defs><marker id="arrow" markerWidth="10" markerHeight="10" refX="8" refY="3" orient="auto" markerUnits="strokeWidth"><path d="M0,0 L0,6 L9,3 z" fill="#111"/></marker></defs>
<style>.label,.svc,.sub,.cloud-title,.awslogo{font-family:Arial,Helvetica,sans-serif;fill:#111}.cloud-title{font-size:20px}.awslogo{font-size:15px;font-weight:bold;fill:#fff}.svc{font-size:15px}.sub{font-size:12px;fill:#333}.caption{font-size:13px;fill:#333}.arrow{stroke:#111;stroke-width:1.4;fill:none;marker-end:url(#arrow)}</style>
<rect width="100%" height="100%" fill="#fff"/>

<g><rect x="55" y="225" width="56" height="56" rx="4" fill="#fff" stroke="#111" stroke-width="1.5"/><text x="83" y="303" text-anchor="middle" class="svc"><tspan x="83" dy="0">User</tspan></text><text x="83" y="321" text-anchor="middle" class="sub"><tspan x="83" dy="0">Browser</tspan></text></g>
<g><rect x="185" y="225" width="56" height="56" rx="4" fill="#fff" stroke="#111" stroke-width="1.5"/><text x="213" y="303" text-anchor="middle" class="svc"><tspan x="213" dy="0">React</tspan></text><text x="213" y="321" text-anchor="middle" class="sub"><tspan x="213" dy="0">Frontend</tspan></text></g>
<rect x="330" y="55" width="660" height="385" fill="#fff" stroke="#111" stroke-width="1.5"/>
<text x="360" y="88" class="cloud-title">Application Runtime</text>
<g><rect x="380" y="205" width="56" height="56" rx="4" fill="#fff" stroke="#111" stroke-width="1.5"/><text x="408" y="283" text-anchor="middle" class="svc"><tspan x="408" dy="0">Spring Boot</tspan></text><text x="408" y="301" text-anchor="middle" class="sub"><tspan x="408" dy="0">API</tspan></text></g>
<g><rect x="540" y="120" width="56" height="56" rx="4" fill="#fff" stroke="#111" stroke-width="1.5"/><text x="568" y="198" text-anchor="middle" class="svc"><tspan x="568" dy="0">Auth</tspan></text><text x="568" y="216" text-anchor="middle" class="sub"><tspan x="568" dy="0">JWT</tspan></text></g>
<g><rect x="540" y="290" width="56" height="56" rx="4" fill="#fff" stroke="#111" stroke-width="1.5"/><text x="568" y="368" text-anchor="middle" class="svc"><tspan x="568" dy="0">Game/Stats</tspan></text><text x="568" y="386" text-anchor="middle" class="sub"><tspan x="568" dy="0">REST API</tspan></text></g>
<g><rect x="700" y="120" width="56" height="56" rx="4" fill="#fff" stroke="#111" stroke-width="1.5"/><text x="728" y="198" text-anchor="middle" class="svc"><tspan x="728" dy="0">Spring Security</tspan></text><text x="728" y="216" text-anchor="middle" class="sub"><tspan x="728" dy="0">Filter Chain</tspan></text></g>
<g><rect x="700" y="290" width="56" height="56" rx="4" fill="#fff" stroke="#111" stroke-width="1.5"/><text x="728" y="368" text-anchor="middle" class="svc"><tspan x="728" dy="0">Rate Limit</tspan></text><text x="728" y="386" text-anchor="middle" class="sub"><tspan x="728" dy="0">Security Filter</tspan></text></g>
<g><rect x="850" y="205" width="56" height="56" rx="4" fill="#fff" stroke="#111" stroke-width="1.5"/><text x="878" y="283" text-anchor="middle" class="svc"><tspan x="878" dy="0">PostgreSQL</tspan></text><text x="878" y="301" text-anchor="middle" class="sub"><tspan x="878" dy="0">H2 for tests</tspan></text></g>
<path d="M 111 253 L 185 253" class="arrow"/><path d="M 241 253 L 380 233" class="arrow"/><path d="M 436 205 L 540 148" class="arrow"/><path d="M 436 261 L 540 318" class="arrow"/><path d="M 596 148 L 700 148" class="arrow"/><path d="M 596 318 L 700 318" class="arrow"/><path d="M 756 233 L 850 233" class="arrow"/>

</svg>
