<svg xmlns="http://www.w3.org/2000/svg" width="1120" height="440" viewBox="0 0 1120 440" role="img" aria-labelledby="title desc">
  <title id="title">Cosmic Wordle Application Architecture</title>
  <desc id="desc">????? README? architecture diagram</desc>
  <defs>
    <marker id="arrow" markerWidth="10" markerHeight="10" refX="8" refY="3" orient="auto" markerUnits="strokeWidth"><path d="M0,0 L0,6 L9,3 z" fill="#334155"/></marker>
    <filter id="shadow" x="-10%" y="-10%" width="120%" height="120%"><feDropShadow dx="0" dy="2" stdDeviation="3" flood-color="#0f172a" flood-opacity="0.12"/></filter>
  </defs>
  <style>
    .bg{fill:#f8fafc}.group{fill:#eef6ff;stroke:#93c5fd;stroke-width:1.2;stroke-dasharray:5 5}.label{font-family:Arial,'Noto Sans KR',sans-serif;font-size:16px;font-weight:700;fill:#0f172a}.sub{font-family:Arial,'Noto Sans KR',sans-serif;font-size:12px;fill:#475569}.edge{font-family:Arial,'Noto Sans KR',sans-serif;font-size:11px;fill:#475569}.title{font-family:Arial,'Noto Sans KR',sans-serif;font-size:22px;font-weight:800;fill:#0f172a}.caption{font-family:Arial,'Noto Sans KR',sans-serif;font-size:13px;fill:#334155}.arrow{stroke:#334155;stroke-width:2;fill:none;marker-end:url(#arrow)}.card{filter:url(#shadow)}
  </style>
  <rect class="bg" width="100%" height="100%" rx="16"/>
  <text x="32" y="38" class="title">Cosmic Wordle Application Architecture</text>
  
  <g class="card"><g><rect x="40" y="110" width="170" height="92" rx="10" fill="#ffffff" stroke="#94a3b8" stroke-width="1.4"/><text x="58" y="144" class="label">React</text><text x="58" y="168" class="sub">Frontend</text></g></g>
  <g class="card"><g><rect x="270" y="110" width="190" height="92" rx="10" fill="#ffffff" stroke="#94a3b8" stroke-width="1.4"/><text x="288" y="144" class="label">Spring Boot</text><text x="288" y="168" class="sub">API Server</text></g></g>
  <g class="card"><g><rect x="530" y="60" width="190" height="82" rx="10" fill="#ffffff" stroke="#94a3b8" stroke-width="1.4"/><text x="548" y="94" class="label">Auth</text><text x="548" y="118" class="sub">JWT</text></g></g>
  <g class="card"><g><rect x="530" y="170" width="190" height="82" rx="10" fill="#ffffff" stroke="#94a3b8" stroke-width="1.4"/><text x="548" y="204" class="label">Game/Stats</text><text x="548" y="228" class="sub">REST API</text></g></g>
  <g class="card"><g><rect x="780" y="60" width="190" height="82" rx="10" fill="#f0fdf4" stroke="#86efac" stroke-width="1.4"/><text x="798" y="94" class="label">Spring Security</text><text x="798" y="118" class="sub">Filter Chain</text></g></g>
  <g class="card"><g><rect x="780" y="170" width="190" height="82" rx="10" fill="#f0fdf4" stroke="#86efac" stroke-width="1.4"/><text x="798" y="204" class="label">Rate Limiting</text><text x="798" y="228" class="sub">Security Filter</text></g></g>
  <g class="card"><g><rect x="530" y="310" width="190" height="72" rx="10" fill="#fdf2f8" stroke="#f9a8d4" stroke-width="1.4"/><text x="548" y="344" class="label">PostgreSQL</text><text x="548" y="368" class="sub">Production DB</text></g></g>
  <g class="card"><g><rect x="780" y="310" width="190" height="72" rx="10" fill="#f8fafc" stroke="#cbd5e1" stroke-width="1.4"/><text x="798" y="344" class="label">H2</text><text x="798" y="368" class="sub">Test DB</text></g></g>
  <path d="M 210 156 L 270 156" class="arrow"/><path d="M 460 140 L 530 100" class="arrow"/><path d="M 460 166 L 530 210" class="arrow"/><path d="M 720 101 L 780 101" class="arrow"/><path d="M 720 211 L 780 211" class="arrow"/><path d="M 625 252 L 625 310" class="arrow"/><path d="M 780 346 L 720 346" class="arrow"/>
  <text x="42" y="410" class="caption">Docker/env ??, JWT ??, Spring Security filter chain, rate limiting? ???? ?? ??? ?? ??? ??? ?????.</text>

</svg>
